<svg xmlns="http://www.w3.org/2000/svg" viewBox="0 0 32 32">
  <rect width="32" height="32" rx="7" fill="#0a1a29"/>
  <g transform="translate(1,1) scale(1.25)" fill="none" stroke="#3f9fd6" stroke-width="2" stroke-linecap="round" stroke-linejoin="round">
    <path d="M11.414 10l-7.383 7.418a2.091 2.091 0 0 0 0 2.967a2.11 2.11 0 0 0 2.976 0l7.407 -7.385"/>
    <path d="M18.121 15.293l2.586 -2.586a1 1 0 0 0 0 -1.414l-7.586 -7.586a1 1 0 0 0 -1.414 0l-2.586 2.586a1 1 0 0 0 0 1.414l7.586 7.586a1 1 0 0 0 1.414 0z"/>
  </g>
</svg>
